<?xml version="1.0" encoding="UTF-8"?>
<svg width="410px" height="464px" viewBox="0 0 410 464" version="1.1" xmlns="http://www.w3.org/2000/svg" xmlns:xlink="http://www.w3.org/1999/xlink">
    <!-- Generator: Sketch 45.2 (43514) - http://www.bohemiancoding.com/sketch -->
    <title>Group</title>
    <desc>Created with Sketch.</desc>
    <defs></defs>
    <g id="Page-1" stroke="none" stroke-width="1" fill="none" fill-rule="evenodd">
        <g id="Group" fill="#53565A">
            <g id="010-paint" transform="translate(102.000000, 0.000000)" fill-rule="nonzero">
                <path d="M183.115,108.353 L172.059,108.353 C154.753,89.191 131.043,77.416 105.471,75.168 L105.471,68.59 L120.274,68.59 C122.833,68.59 125.271,67.501 126.978,65.595 C128.685,63.689 129.5,61.146 129.219,58.603 L123.983,11.155 C123.479,6.594 119.626,3.142 115.037,3.142 L77.904,3.142 C73.316,3.142 69.462,6.594 68.958,11.155 L63.721,58.603 C63.44,61.146 64.256,63.689 65.963,65.595 C67.671,67.501 70.109,68.59 72.667,68.59 L87.47,68.59 L87.47,75.168 C61.898,77.416 38.189,89.191 20.882,108.353 L9.826,108.353 C4.855,108.353 0.826,112.382 0.826,117.353 L0.826,445.362 C0.826,450.333 4.855,454.362 9.826,454.362 L16.298,454.362 L16.298,454.522 C16.298,459.493 20.327,463.522 25.298,463.522 L167.642,463.522 C172.613,463.522 176.642,459.493 176.642,454.522 L176.642,454.362 L183.114,454.362 C188.085,454.362 192.114,450.333 192.114,445.362 L192.114,117.353 C192.115,112.382 188.085,108.353 183.115,108.353 Z M85.966,21.143 L106.976,21.143 L110.226,50.591 L82.715,50.591 L85.966,21.143 Z M18.827,126.353 L174.115,126.353 L174.115,436.362 L18.827,436.362 L18.827,126.353 Z M96.471,92.769 C114.169,92.769 131.115,98.302 145.183,108.353 L47.76,108.353 C61.828,98.302 78.773,92.769 96.471,92.769 Z" id="Shape"></path>
                <path d="M236.377,54.69 L177.021,36.142 L236.377,17.594 C241.121,16.112 243.766,11.064 242.283,6.319 C240.8,1.574 235.749,-1.07 231.008,0.413 L144.161,27.552 C140.404,28.726 137.846,32.206 137.846,36.142 C137.846,40.078 140.405,43.558 144.161,44.732 L231.008,71.871 C231.902,72.15 232.806,72.283 233.696,72.283 C237.528,72.283 241.08,69.816 242.284,65.965 C243.766,61.22 241.121,56.172 236.377,54.69 Z" id="Shape"></path>
                <path d="M153.916,135.865 C148.945,135.865 144.916,139.894 144.916,144.865 L144.916,417.851 C144.916,422.822 148.945,426.851 153.916,426.851 C158.887,426.851 162.916,422.822 162.916,417.851 L162.916,144.865 C162.916,139.894 158.887,135.865 153.916,135.865 Z" id="Shape"></path>
            </g>
            <polygon id="Rectangle" transform="translate(204.691200, 231.691200) rotate(45.000000) translate(-204.691200, -231.691200) " points="195.6912 -48.7858712 213.6912 -48.7858712 213.6912 219.231681 213.6912 512.168272 195.6912 512.168272 195.6912 99.8002675"></polygon>
        </g>
    </g>
</svg>