<?xml version="1.0" encoding="UTF-8"?>
<svg width="19px" height="11px" viewBox="0 0 19 11" version="1.1" xmlns="http://www.w3.org/2000/svg" xmlns:xlink="http://www.w3.org/1999/xlink">
    <!-- Generator: Sketch 43.2 (39069) - http://www.bohemiancoding.com/sketch -->
    <title>Group 1146</title>
    <desc>Created with Sketch.</desc>
    <defs></defs>
    <g id="Page-2" stroke="none" stroke-width="1" fill="none" fill-rule="evenodd">
        <g id="2.0---1366px-copy-10" transform="translate(-480.000000, -657.000000)" fill="#75787B">
            <g id="Group-1146" transform="translate(489.500000, 662.500000) scale(-1, -1) translate(-489.500000, -662.500000) translate(480.000000, 657.000000)">
                <path d="M9.07212,1.41532966 C7.20556,1.41532966 5.17484,1.73632966 3.0362,2.37007966 L0.64296,0.105079659 C0.40128,-0.124420341 0,0.0473296585 0,0.375829659 L0,10.1258297 C0,10.3328297 0.17024,10.5008297 0.38,10.5008297 L10.3208,10.5008297 C10.65976,10.5008297 10.82772,10.0995797 10.58984,9.86332966 L7.99064,7.28932966 C9.75916,6.44782966 11.57556,5.98807966 13.15332,5.98807966 C15.88476,5.98807966 17.5446,7.34332966 17.5408,10.1415797 C17.53928,10.6373297 18.29928,10.6448297 18.3008,10.1430797 C18.31144,4.36882966 14.70676,1.41532966 9.07212,1.41532966" id="Fill-1610"></path>
            </g>
        </g>
    </g>
</svg>