<?xml version="1.0" encoding="UTF-8"?>
<svg width="19px" height="12px" viewBox="0 0 19 12" version="1.1" xmlns="http://www.w3.org/2000/svg" xmlns:xlink="http://www.w3.org/1999/xlink">
    <!-- Generator: Sketch 43.2 (39069) - http://www.bohemiancoding.com/sketch -->
    <title>Group 1145</title>
    <desc>Created with Sketch.</desc>
    <defs></defs>
    <g id="Page-2" stroke="none" stroke-width="1" fill="none" fill-rule="evenodd">
        <g id="2.0---1366px-copy-10" transform="translate(-387.000000, -656.000000)" fill="#75787B">
            <g id="Group-1145" transform="translate(396.500000, 662.000000) scale(-1, -1) translate(-396.500000, -662.000000) translate(387.000000, 656.000000)">
                <path d="M18.2582107,0.120872072 L15.9220024,2.53207207 C13.6744607,1.84087207 11.543294,1.49127207 9.58471071,1.49127207 C3.50391904,1.49127207 0.0110857052,4.87047207 2.3718357e-06,10.7640721 C-0.0015809615,11.2960721 0.790085705,11.2992721 0.791669039,10.7656721 C0.798002372,6.92647207 3.64879404,6.35287207 5.34691904,6.35287207 C6.99516904,6.35287207 8.89596071,6.84967207 10.7460857,7.76007207 L7.97208571,10.5152721 C7.72112737,10.7616721 7.89212737,11.2008721 8.24916904,11.2008721 L18.5408357,11.2008721 C18.7593357,11.2008721 18.936669,11.0216721 18.936669,10.8008721 L18.936669,0.400872072 C18.936669,0.0408720723 18.5028357,-0.134327928 18.2582107,0.120872072" id="Fill-445"></path>
            </g>
        </g>
    </g>
</svg>