<?xml version="1.0" encoding="UTF-8"?>
<svg width="512px" height="512px" viewBox="0 0 512 512" version="1.1" xmlns="http://www.w3.org/2000/svg" xmlns:xlink="http://www.w3.org/1999/xlink">
    <!-- Generator: Sketch 45.2 (43514) - http://www.bohemiancoding.com/sketch -->
    <title>Group</title>
    <desc>Created with Sketch.</desc>
    <defs></defs>
    <g id="Page-1" stroke="none" stroke-width="1" fill="none" fill-rule="evenodd">
        <g id="Group" fill-rule="nonzero" fill="#53565A">
            <g id="004-cup">
                <path d="M511.982,97.701 C511.472,54.246 489.234,30.313 449.363,30.313 C433.931,30.313 419.061,33.905 409.34,36.902 C410.308,19.14 410.323,8.176 410.323,7.631 L410.324,0.027 L101.683,0.027 L101.683,7.63 C101.683,7.89 101.709,19.027 102.688,36.911 C92.968,33.912 78.084,30.313 62.637,30.313 C22.767,30.313 0.528,54.245 0.018,97.701 C-0.484,140.451 9.266,178.505 28.995,210.808 C48.365,242.523 73.123,261.634 90.482,272.079 C118.285,288.811 146.072,292.323 164.488,292.323 C169.028,292.323 173.402,292.109 177.493,291.687 C177.764,291.659 178.015,291.627 178.28,291.598 C187.184,301.187 196.783,308.868 207.04,314.576 C214.601,318.783 219.86,326.12 221.662,334.553 C211.467,337.726 204.044,347.251 204.044,358.476 C204.044,369.953 211.807,379.646 222.354,382.596 L222.354,414.506 L181.212,414.506 L181.212,447.807 L140.612,447.807 L140.612,511.974 L371.393,511.974 L371.393,447.807 L330.793,447.807 L330.793,414.506 L289.651,414.506 L289.651,382.596 C300.199,379.645 307.962,369.953 307.962,358.476 C307.962,347.25 300.539,337.726 290.344,334.553 C292.146,326.12 297.404,318.784 304.966,314.576 C315.198,308.883 324.863,301.16 333.745,291.602 C336.892,291.951 341.611,292.322 347.511,292.322 C347.513,292.322 347.512,292.322 347.515,292.322 C365.929,292.322 393.715,288.808 421.516,272.078 C438.874,261.632 463.633,242.522 483.003,210.807 C502.735,178.505 512.484,140.45 511.982,97.701 Z M394.992,15.233 C394.924,18.014 394.816,21.51 394.65,25.602 L117.387,25.602 C117.215,21.511 117.1,18.01 117.026,15.233 L394.992,15.233 Z M405.334,85.046 C415.636,81.617 428.988,78.159 440.949,78.159 C450.978,78.159 458.199,80.609 462.412,85.441 C467.254,90.995 468.815,100.325 467.049,113.175 C459.696,166.701 436.487,208.483 401.695,230.822 C389.576,238.604 376.524,241.819 365.586,242.961 C388.723,194.33 399.921,133.314 405.334,85.046 Z M114.495,138.009 C121.974,178.124 132.3,212.572 145.188,240.395 C145.587,241.259 145.993,242.11 146.397,242.961 C135.463,241.816 122.419,238.602 110.305,230.824 C75.514,208.484 52.304,166.703 44.951,113.177 C43.186,100.326 44.746,90.995 49.589,85.443 C53.802,80.611 61.024,78.162 71.052,78.162 C83.023,78.162 96.387,81.625 106.693,85.056 C108.534,101.518 111.051,119.537 114.495,138.009 Z M164.488,277.117 C148,277.117 123.135,273.982 98.324,259.051 C72.949,243.781 14.054,197.507 15.224,97.88 C15.638,62.647 31.147,45.52 62.637,45.52 C79.478,45.52 96.111,50.597 103.714,53.275 C104.093,58.376 104.518,63.492 104.988,68.587 C94.653,65.551 82.476,62.953 71.052,62.953 C56.434,62.953 45.357,67.156 38.127,75.446 C30.268,84.459 27.495,97.849 29.885,115.244 C33.979,145.045 42.535,171.385 55.316,193.531 C67.517,214.673 83.254,231.525 102.088,243.617 C120.484,255.43 140.381,258.409 154.574,258.694 C154.622,258.778 154.671,258.858 154.719,258.941 C155.497,260.304 156.283,261.644 157.077,262.967 C157.324,263.38 157.573,263.79 157.822,264.199 C158.579,265.443 159.342,266.675 160.113,267.882 C160.403,268.336 160.697,268.779 160.989,269.229 C161.514,270.036 162.042,270.836 162.574,271.627 C163.088,272.392 163.604,273.149 164.123,273.898 C164.632,274.631 165.142,275.36 165.656,276.079 C165.897,276.417 166.134,276.768 166.375,277.102 C165.763,277.112 165.134,277.117 164.488,277.117 Z M356.188,463.015 L356.188,496.768 L155.82,496.768 L155.82,463.015 L181.213,463.015 L330.794,463.015 L356.188,463.015 Z M289.653,429.714 L315.587,429.714 L315.587,447.808 L196.42,447.808 L196.42,429.714 L222.355,429.714 L289.653,429.714 Z M237.561,414.507 L237.561,383.525 L274.446,383.525 L274.446,414.507 L237.561,414.507 L237.561,414.507 Z M292.757,358.476 C292.757,363.903 288.341,368.318 282.915,368.318 L229.093,368.318 C223.666,368.318 219.251,363.903 219.251,358.476 C219.251,353.049 223.666,348.634 229.093,348.634 L282.915,348.634 C288.342,348.634 292.757,353.049 292.757,358.476 Z M330.791,271.552 C330.707,271.661 330.623,271.77 330.539,271.879 C329.791,272.847 329.037,273.791 328.279,274.722 C328.093,274.949 327.91,275.18 327.723,275.406 C326.89,276.418 326.05,277.408 325.206,278.374 C325.165,278.42 325.127,278.468 325.086,278.514 C316.607,288.187 307.351,295.848 297.574,301.288 C285.523,307.992 277.329,319.899 275.075,333.427 L236.933,333.427 C234.678,319.898 226.484,307.992 214.433,301.288 C204.997,296.039 196.475,289.022 188.776,280.637 L186.916,278.515 C179.356,269.893 172.23,259.447 165.737,247.47 L163.748,243.799 C131.051,180.622 121.161,89.311 118.179,40.808 L393.884,40.808 C393.757,42.918 393.618,45.097 393.464,47.36 C393.457,47.465 393.449,47.573 393.442,47.678 C393.274,50.13 393.094,52.589 392.903,55.05 C392.898,55.122 392.892,55.194 392.887,55.267 C392.279,63.067 391.559,70.896 390.738,78.632 L390.241,83.31 C384.716,132.838 373.047,195.935 348.44,243.463 L346.267,247.469 C341.432,256.385 336.246,264.451 330.791,271.552 Z M413.677,259.051 C388.864,273.983 364.004,277.117 347.517,277.117 C347.516,277.117 347.514,277.117 347.513,277.117 C346.866,277.117 346.237,277.112 345.624,277.102 C345.634,277.088 345.644,277.073 345.654,277.059 C346.641,275.697 347.613,274.315 348.57,272.914 C348.687,272.743 348.802,272.568 348.919,272.397 C349.728,271.205 350.525,269.997 351.313,268.777 C351.516,268.464 351.719,268.15 351.92,267.835 C352.792,266.466 353.655,265.088 354.501,263.686 C354.634,263.467 354.763,263.242 354.895,263.021 C355.588,261.863 356.273,260.694 356.949,259.514 C357.107,259.238 357.27,258.974 357.429,258.696 C371.622,258.411 391.519,255.432 409.915,243.619 C428.749,231.525 444.486,214.673 456.687,193.533 C469.467,171.387 478.023,145.047 482.118,115.246 C484.506,97.85 481.734,84.46 473.876,75.448 C466.647,67.157 455.569,62.954 440.951,62.954 C429.528,62.954 417.349,65.55 407.015,68.587 C407.494,63.392 407.905,58.409 408.257,53.673 C408.267,53.541 408.278,53.408 408.288,53.277 C415.893,50.598 432.525,45.522 449.365,45.522 C480.855,45.522 496.364,62.649 496.779,97.88 C497.945,197.507 439.052,243.78 413.677,259.051 Z" id="Shape"></path>
                <path d="M192.356,246.237 L179.656,254.604 C183.992,261.187 188.652,267.168 193.507,272.38 L204.635,262.014 C200.358,257.423 196.227,252.114 192.356,246.237 Z" id="Shape"></path>
                <path d="M159.716,161.922 L144.89,165.304 C152.182,197.269 161.917,224.103 173.823,245.06 L187.045,237.548 C175.873,217.883 166.678,192.439 159.716,161.922 Z" id="Shape"></path>
                <polygon id="Shape" points="443.666 333.509 443.655 318.302 430.818 318.31 430.809 305.473 415.602 305.483 415.611 318.321 402.774 318.33 402.784 333.537 415.621 333.528 415.63 346.364 430.837 346.354 430.828 333.517"></polygon>
                <polygon id="Shape" points="112.785 412.475 112.769 397.268 101.997 397.279 101.986 386.506 86.779 386.522 86.79 397.294 76.016 397.305 76.033 412.512 86.805 412.501 86.816 423.275 102.023 423.259 102.012 412.486"></polygon>
                <rect id="Rectangle-path" x="48.845" y="288.161" width="14.345" height="15.207"></rect>
                <rect id="Rectangle-path" x="141.039" y="333.153" width="14.345" height="15.207"></rect>
                <rect id="Rectangle-path" x="372.254" y="378.905" width="14.345" height="15.207"></rect>
            </g>
        </g>
    </g>
</svg>