<?xml version="1.0" encoding="UTF-8"?>
<svg width="64px" height="40px" viewBox="0 0 64 40" version="1.1" xmlns="http://www.w3.org/2000/svg" xmlns:xlink="http://www.w3.org/1999/xlink">
    <!-- Generator: Sketch 45.2 (43514) - http://www.bohemiancoding.com/sketch -->
    <title>Group</title>
    <desc>Created with Sketch.</desc>
    <defs></defs>
    <g id="Page-1" stroke="none" stroke-width="1" fill="none" fill-rule="evenodd">
        <g id="Group" fill-rule="nonzero" fill="#53565A">
            <g id="007-waves">
                <path d="M16.5137234,12.1536064 C21.8413239,12.1536064 27.1650238,10.3186073 32.5586243,6.6506061 C41.6343193,0.4763069 53.0898247,0.4783067 62.4521218,6.6585063 C62.9145203,6.9617061 63.5342217,6.8328055 63.8364182,6.3671073 C64.1391221,5.9015063 64.0098267,5.2764072 63.5478249,4.9712066 C53.4990197,-1.6598941 41.1963196,-1.6568938 31.4394226,4.9791068 C21.4043236,11.805107 11.6294231,11.8061065 1.5581226,4.9781054 C1.0996226,4.6670054 0.4785226,4.791107 0.1699227,5.2528056 C-0.1381773,5.7144069 -0.0160773,6.3405055 0.4419227,6.6516055 C5.854023,10.3196068 11.185523,12.1536064 16.5137234,12.1536064 Z" id="Shape"></path>
                <path d="M63.5478249,18.8939056 C53.4980202,12.2628059 41.1953202,12.2658062 31.4394226,18.9018058 C21.4033222,25.7298049 11.6284218,25.7288055 1.5581226,18.9008063 C1.0996226,18.5897063 0.4785226,18.7128066 0.1704226,19.1755065 C-0.1381774,19.6372069 -0.0160774,20.2633056 0.4419226,20.5743064 C5.8535227,24.2423057 11.1846222,26.0773048 16.5127234,26.0773048 C21.840322,26.0763053 27.164123,24.2423057 32.5586237,20.5734062 C41.6333193,14.3981056 53.08892,14.4020061 62.4521212,20.5812073 C62.9145197,20.8844071 63.5347208,20.7555046 63.8369212,20.2898064 C64.139122,19.8242073 64.0098267,19.1991062 63.5478249,18.8939056 Z" id="Shape"></path>
                <path d="M63.5478249,32.8166046 C53.4980202,26.1875076 41.1958237,26.190506 31.4394226,32.8245048 C21.405323,39.6525077 11.6313229,39.6545066 1.5581226,32.8235053 C1.0996226,32.5125045 0.4785226,32.636505 0.1704226,33.0982055 C-0.1381774,33.5599059 -0.0160774,34.1860046 0.4419226,34.4971046 C5.8540224,38.166008 11.1860222,40.001007 16.5137228,40.0000076 C21.8413233,40.0000076 27.1650232,38.1650047 32.558124,34.4961052 C41.6343188,28.3227081 53.0889201,28.324707 62.4521212,34.5039063 C62.9145197,34.8071061 63.5347208,34.6782074 63.8369212,34.2126084 C64.139122,33.7469063 64.0098267,33.1218071 63.5478249,32.8166046 Z" id="Shape"></path>
            </g>
        </g>
    </g>
</svg>