<?xml version="1.0" encoding="UTF-8"?>
<svg width="461px" height="461px" viewBox="0 0 461 461" version="1.1" xmlns="http://www.w3.org/2000/svg" xmlns:xlink="http://www.w3.org/1999/xlink">
    <!-- Generator: Sketch 45.2 (43514) - http://www.bohemiancoding.com/sketch -->
    <title>Group</title>
    <desc>Created with Sketch.</desc>
    <defs></defs>
    <g id="Page-1" stroke="none" stroke-width="1" fill="none" fill-rule="evenodd">
        <g id="Group" fill="#53565A">
            <g id="001-sticky-note" transform="translate(36.000000, 36.000000)" fill-rule="nonzero">
                <path d="M388.172,55.218 L116.189,1.089 L115.535,0.961 L26.397,1.125 L0,1.089 L0,387.305 L388.266,387.305 L388.266,64.598 L388.172,55.218 Z M323.391539,144.434 C293.540806,118.05967 199.635789,55.0245963 136.808953,13.6245979 L378.03227,62.0402578 C373.207897,82.3391812 359.343237,123.345584 323.391539,144.434 Z M321.634234,159.129768 C343.084234,148.830768 368.11827,106.031273 378.03227,89.5002729 L378.03227,379.582807 L8.57355813,379.582807 L8.57355813,9.57684685 L115.894,9.57684685 C137.34142,23.727236 168.839978,44.2332359 194.965102,61.4018986 C251.454026,98.524757 303.018915,137.083165 313.963321,149.52776 L321.634234,159.129768 Z" id="Shape"></path>
            </g>
            <polygon id="Rectangle" transform="translate(230.362567, 230.362567) rotate(45.000000) translate(-230.362567, -230.362567) " points="221.892711 -86.9494436 238.832423 -86.9494436 238.832423 216.266745 238.832423 547.674578 221.892711 547.674578 221.892711 81.1504522"></polygon>
        </g>
    </g>
</svg>