<?xml version="1.0" encoding="UTF-8"?>
<svg width="33px" height="27px" viewBox="0 0 33 27" version="1.1" xmlns="http://www.w3.org/2000/svg" xmlns:xlink="http://www.w3.org/1999/xlink">
    <!-- Generator: Sketch 42 (36781) - http://www.bohemiancoding.com/sketch -->
    <title>Phone Icon</title>
    <desc>Created with Sketch.</desc>
    <defs></defs>
    <g id="Page-1" stroke="none" stroke-width="1" fill="none" fill-rule="evenodd">
        <g id="Phone-Icon" transform="translate(1.000000, 1.000000)">
            <path d="M27.125,1.18203788 C28.9087917,1.54863788 30.3541667,3.13333788 30.3541667,4.96503788 L30.3541667,7.80033788 C30.3541667,9.22123788 29.182625,10.6356379 27.7708333,10.6356379 L23.8958333,10.6356379 C22.4840417,10.6356379 21.3125,9.22123788 21.3125,7.80033788 L21.3125,5.61503788 C17.4827083,5.23283788 13.519875,5.23283788 9.6875,5.61503788 L9.6875,7.80033788 C9.6875,9.22123788 8.51595833,10.6356379 7.10416667,10.6356379 L3.22916667,10.6356379 C1.817375,10.6356379 0.645833333,9.22123788 0.645833333,7.80033788 L0.645833333,4.96503788 C0.645833333,3.13333788 2.09120833,1.54863788 3.875,1.18203788 C11.303375,-0.340262121 19.1786667,-0.446862121 27.125,1.18203788 L27.125,1.18203788 Z" id="Stroke-5960" stroke="#75787B" stroke-width="1.5" stroke-linecap="round" stroke-linejoin="round"></path>
            <path d="M24.8958333,12.3500779 L24.8958333,22.1000779 C24.8958333,23.5313779 23.7333333,24.7000779 22.3125,24.7000779 L9.39583333,24.7000779 C7.975,24.7000779 6.8125,23.5313779 6.8125,22.1000779 L6.8125,12.3500779" id="Stroke-5961" stroke="#75787B" stroke-width="1.5" stroke-linejoin="round"></path>
            <polygon id="Fill-5962" fill="#75787B" points="11.3333333 14.9500779 12.625 14.9500779 12.625 13.6500779 11.3333333 13.6500779"></polygon>
            <polygon id="Fill-5963" fill="#75787B" points="15.2083333 14.9500779 16.5 14.9500779 16.5 13.6500779 15.2083333 13.6500779"></polygon>
            <polygon id="Fill-5964" fill="#75787B" points="19.0833333 14.9500779 20.375 14.9500779 20.375 13.6500779 19.0833333 13.6500779"></polygon>
            <polygon id="Fill-5965" fill="#75787B" points="11.3333333 17.5500779 12.625 17.5500779 12.625 16.2500779 11.3333333 16.2500779"></polygon>
            <polygon id="Fill-5966" fill="#75787B" points="15.2083333 17.5500779 16.5 17.5500779 16.5 16.2500779 15.2083333 16.2500779"></polygon>
            <polygon id="Fill-5967" fill="#75787B" points="19.0833333 17.5500779 20.375 17.5500779 20.375 16.2500779 19.0833333 16.2500779"></polygon>
            <polygon id="Fill-5968" fill="#75787B" points="11.3333333 20.1500779 12.625 20.1500779 12.625 18.8500779 11.3333333 18.8500779"></polygon>
            <polygon id="Fill-5969" fill="#75787B" points="15.2083333 20.1500779 16.5 20.1500779 16.5 18.8500779 15.2083333 18.8500779"></polygon>
            <polygon id="Fill-5970" fill="#75787B" points="19.0833333 20.1500779 20.375 20.1500779 20.375 18.8500779 19.0833333 18.8500779"></polygon>
        </g>
    </g>
</svg>