<?xml version="1.0" encoding="UTF-8"?>
<svg width="15px" height="19px" viewBox="0 0 15 19" version="1.1" xmlns="http://www.w3.org/2000/svg" xmlns:xlink="http://www.w3.org/1999/xlink">
    <!-- Generator: Sketch 42 (36781) - http://www.bohemiancoding.com/sketch -->
    <title>Shape</title>
    <desc>Created with Sketch.</desc>
    <defs></defs>
    <g id="Page-1" stroke="none" stroke-width="1" fill="none" fill-rule="evenodd">
        <g id="2.0-Sold-Out---1366px" transform="translate(-48.000000, -438.000000)" fill-rule="nonzero" fill="#75787B">
            <path d="M55.9136842,438 C50.6526316,438 48,441.551786 48,444.513837 C48,446.307201 48.7209868,447.902438 50.2671711,448.49719 C50.5209868,448.594767 50.7483553,448.500722 50.8221711,448.236429 C50.8730921,448.053356 50.9940789,447.591866 51.0479605,447.399501 C51.1221711,447.137996 51.0931579,447.046367 50.8886842,446.818502 C50.4428289,446.323185 50.1578289,445.681968 50.1578289,444.77367 C50.1578289,442.138546 52.2515132,439.77961 55.6099342,439.77961 C58.5830921,439.77961 60.2169079,441.490638 60.2169079,443.775601 C60.2169079,446.782074 58.8039474,449.319435 56.7065132,449.319435 C55.5479605,449.319435 54.6811184,448.41727 54.9590132,447.310845 C55.2917763,445.989938 55.9361842,444.564206 55.9361842,443.610929 C55.9361842,442.75746 55.4500658,442.04543 54.4430921,442.04543 C53.2588816,442.04543 52.3077632,443.199063 52.3077632,444.744304 C52.3077632,445.728619 52.6608553,446.39437 52.6608553,446.39437 C52.6608553,446.39437 51.4488158,451.229519 51.2368421,452.076297 C50.8134868,453.76242 51.1732895,455.829741 51.2036842,456.038462 C51.22125,456.162245 51.39,456.191611 51.4665789,456.098309 C51.5761184,455.963932 52.9863158,454.324461 53.4657237,452.686104 C53.6013158,452.222198 54.2441447,449.820142 54.2441447,449.820142 C54.6290132,450.510984 55.7534211,451.119676 56.9492763,451.119676 C60.5086184,451.119676 62.9238158,448.06395 62.9238158,443.973356 C62.9240132,440.880459 60.1417105,438 55.9136842,438 Z" id="Shape"></path>
        </g>
    </g>
</svg>