<?xml version="1.0" encoding="UTF-8"?>
<svg width="15px" height="19px" viewBox="0 0 15 19" version="1.1" xmlns="http://www.w3.org/2000/svg" xmlns:xlink="http://www.w3.org/1999/xlink">
    <!-- Generator: Sketch 42 (36781) - http://www.bohemiancoding.com/sketch -->
    <title>pinterest icon</title>
    <desc>Created with Sketch.</desc>
    <defs></defs>
    <g id="Page-1" stroke="none" stroke-width="1" fill="none" fill-rule="evenodd">
        <g id="pinterest-icon" fill-rule="nonzero" fill="#A7A8AA">
            <path d="M7.91368421,0 C2.65263158,0 0,3.55178571 0,6.51383746 C0,8.30720117 0.720986842,9.90243805 2.26717105,10.4971902 C2.52098684,10.5947668 2.74835526,10.5007216 2.82217105,10.2364286 C2.87309211,10.0533564 2.99407895,9.59186589 3.04796053,9.39950073 C3.12217105,9.13799563 3.09315789,9.04636662 2.88868421,8.81850219 C2.44282895,8.32318513 2.15782895,7.68196793 2.15782895,6.77366983 C2.15782895,4.13854592 4.25151316,1.77961006 7.60993421,1.77961006 C10.5830921,1.77961006 12.2169079,3.49063776 12.2169079,5.77560131 C12.2169079,8.78207362 10.8039474,11.3194351 8.70651316,11.3194351 C7.54796053,11.3194351 6.68111842,10.4172704 6.95901316,9.31084548 C7.29177632,7.98993805 7.93618421,6.56420554 7.93618421,5.6109293 C7.93618421,4.75745991 7.45006579,4.04543003 6.44309211,4.04543003 C5.25888158,4.04543003 4.30776316,5.19906341 4.30776316,6.74430394 C4.30776316,7.7286188 4.66085526,8.39436953 4.66085526,8.39436953 C4.66085526,8.39436953 3.44881579,13.229519 3.23684211,14.0762974 C2.81348684,15.7624198 3.17328947,17.8297413 3.20368421,18.0384621 C3.22125,18.1622449 3.39,18.1916108 3.46657895,18.098309 C3.57611842,17.9639322 4.98631579,16.3244606 5.46572368,14.6861042 C5.60131579,14.2221975 6.24414474,11.8201421 6.24414474,11.8201421 C6.62901316,12.510984 7.75342105,13.1196757 8.94927632,13.1196757 C12.5086184,13.1196757 14.9238158,10.0639504 14.9238158,5.97335641 C14.9240132,2.88045918 12.1417105,0 7.91368421,0 Z" id="Shape"></path>
        </g>
    </g>
</svg>