<?xml version="1.0" encoding="UTF-8"?>
<svg width="462px" height="511px" viewBox="0 0 462 511" version="1.1" xmlns="http://www.w3.org/2000/svg" xmlns:xlink="http://www.w3.org/1999/xlink">
    <!-- Generator: Sketch 45.2 (43514) - http://www.bohemiancoding.com/sketch -->
    <title>Group</title>
    <desc>Created with Sketch.</desc>
    <defs></defs>
    <g id="Page-1" stroke="none" stroke-width="1" fill="none" fill-rule="evenodd">
        <g id="Group" transform="translate(-12.000000, -89.000000)" fill="#53565A">
            <g id="003-science" transform="translate(59.000000, 89.000000)" fill-rule="nonzero">
                <path d="M388.716,424.958 L255,222.079 L255,45.766 C264.29,42.628 271,33.836 271,23.5 C271,10.542 260.458,0 247.5,0 L151.5,0 C138.542,0 128,10.542 128,23.5 C128,33.836 134.71,42.628 144,45.766 L144,222.079 L10.284,424.958 C-1.138,442.288 -2.081,463.543 7.761,481.817 C17.602,500.09 35.869,511 56.625,511 L342.376,511 C363.131,511 381.398,500.09 391.24,481.817 C401.081,463.543 400.138,442.288 388.716,424.958 Z M151.5,15 L247.5,15 C252.187,15 256,18.813 256,23.5 C256,28.187 252.187,32 247.5,32 L151.5,32 C146.813,32 143,28.187 143,23.5 C143,18.813 146.813,15 151.5,15 Z M378.033,474.704 C370.851,488.039 357.521,496 342.375,496 L56.625,496 C41.479,496 28.149,488.039 20.967,474.704 C13.785,461.369 14.474,445.858 22.809,433.212 L157.763,228.455 C158.571,227.23 159.001,225.795 159.001,224.328 L159.001,47 L240.001,47 L240.001,224.328 C240.001,225.795 240.431,227.23 241.239,228.455 L376.193,433.212 C384.526,445.858 385.215,461.369 378.033,474.704 Z" id="Shape"></path>
                <path d="M304.528,355.373 C303.14,353.268 300.787,352 298.266,352 L100.734,352 C98.213,352 95.859,353.267 94.472,355.373 L37.003,442.568 C32.167,449.906 31.768,458.906 35.935,466.644 C40.102,474.381 47.837,479 56.625,479 L342.376,479 C351.164,479 358.898,474.381 363.066,466.643 C367.233,458.905 366.833,449.905 361.997,442.567 L304.528,355.373 Z M349.859,459.53 C348.761,461.569 346.571,464 342.375,464 L56.625,464 C52.429,464 50.239,461.569 49.142,459.531 C48.044,457.492 47.219,454.325 49.528,450.823 L104.774,367 L294.226,367 L349.473,450.822 C351.782,454.325 350.957,457.492 349.859,459.53 Z" id="Shape"></path>
                <path d="M143.5,384 C130.542,384 120,394.542 120,407.5 C120,420.458 130.542,431 143.5,431 C156.458,431 167,420.458 167,407.5 C167,394.542 156.458,384 143.5,384 Z M143.5,416 C138.813,416 135,412.187 135,407.5 C135,402.813 138.813,399 143.5,399 C148.187,399 152,402.813 152,407.5 C152,412.187 148.187,416 143.5,416 Z" id="Shape"></path>
                <path d="M271.5,400 C258.542,400 248,410.542 248,423.5 C248,436.458 258.542,447 271.5,447 C284.458,447 295,436.458 295,423.5 C295,410.542 284.458,400 271.5,400 Z M271.5,432 C266.813,432 263,428.187 263,423.5 C263,418.813 266.813,415 271.5,415 C276.187,415 280,418.813 280,423.5 C280,428.187 276.187,432 271.5,432 Z" id="Shape"></path>
                <path d="M223.5,392 C221.53,392 219.59,392.8 218.2,394.2 C216.8,395.59 216,397.53 216,399.5 C216,401.47 216.8,403.41 218.2,404.8 C219.59,406.2 221.53,407 223.5,407 C225.47,407 227.41,406.2 228.8,404.8 C230.2,403.41 231,401.47 231,399.5 C231,397.53 230.2,395.59 228.8,394.2 C227.41,392.8 225.47,392 223.5,392 Z" id="Shape"></path>
                <path d="M183.5,327 C185.47,327 187.41,326.2 188.8,324.8 C190.2,323.41 191,321.47 191,319.5 C191,317.53 190.2,315.59 188.8,314.2 C187.41,312.8 185.47,312 183.5,312 C181.53,312 179.59,312.8 178.2,314.2 C176.8,315.59 176,317.53 176,319.5 C176,321.47 176.8,323.41 178.2,324.8 C179.59,326.2 181.53,327 183.5,327 Z" id="Shape"></path>
                <path d="M215.5,263 C217.47,263 219.41,262.2 220.8,260.8 C222.2,259.41 223,257.47 223,255.5 C223,253.53 222.2,251.59 220.8,250.2 C219.41,248.8 217.47,248 215.5,248 C213.53,248 211.59,248.8 210.2,250.2 C208.8,251.59 208,253.53 208,255.5 C208,257.47 208.8,259.41 210.2,260.8 C211.59,262.2 213.53,263 215.5,263 Z" id="Shape"></path>
                <path d="M191.5,199 C193.47,199 195.41,198.2 196.8,196.8 C198.2,195.41 199,193.47 199,191.5 C199,189.52 198.2,187.59 196.8,186.2 C195.41,184.8 193.48,184 191.5,184 C189.53,184 187.59,184.8 186.2,186.2 C184.8,187.59 184,189.53 184,191.5 C184,193.47 184.8,195.41 186.2,196.8 C187.59,198.2 189.53,199 191.5,199 Z" id="Shape"></path>
                <path d="M191.5,432 C189.52,432 187.59,432.8 186.2,434.2 C184.8,435.59 184,437.53 184,439.5 C184,441.47 184.8,443.41 186.2,444.8 C187.59,446.2 189.53,447 191.5,447 C193.47,447 195.41,446.2 196.8,444.8 C198.2,443.41 199,441.47 199,439.5 C199,437.53 198.2,435.59 196.8,434.2 C195.41,432.8 193.47,432 191.5,432 Z" id="Shape"></path>
                <path d="M95.5,452 C93.53,452 91.59,452.8 90.2,454.2 C88.8,455.59 88,457.53 88,459.5 C88,461.47 88.8,463.41 90.2,464.8 C91.59,466.2 93.53,467 95.5,467 C97.47,467 99.41,466.2 100.8,464.8 C102.2,463.41 103,461.47 103,459.5 C103,457.53 102.2,455.59 100.8,454.2 C99.41,452.8 97.47,452 95.5,452 Z" id="Shape"></path>
            </g>
            <polygon id="Rectangle" transform="translate(243.088859, 360.009502) rotate(45.000000) translate(-243.088859, -360.009502) " points="234.607472 42.2655015 251.570245 42.2655015 251.570245 345.894489 251.570245 677.753503 234.607472 677.753503 234.607472 210.594249"></polygon>
        </g>
    </g>
</svg>