<?xml version="1.0" encoding="UTF-8"?>
<svg width="274px" height="512px" viewBox="0 0 274 512" version="1.1" xmlns="http://www.w3.org/2000/svg" xmlns:xlink="http://www.w3.org/1999/xlink">
    <!-- Generator: Sketch 45.2 (43514) - http://www.bohemiancoding.com/sketch -->
    <title>Group</title>
    <desc>Created with Sketch.</desc>
    <defs></defs>
    <g id="Page-1" stroke="none" stroke-width="1" fill="none" fill-rule="evenodd">
        <g id="Group" fill-rule="nonzero" fill="#53565A">
            <g id="002-travel">
                <path d="M248.165,136.819 L179.221,136.819 L179.221,48.159 C184.314,45.33 187.772,39.899 187.772,33.67 L187.772,16.568 C187.772,7.432 180.34,0 171.205,0 L102.796,0 C93.66,0 86.228,7.432 86.228,16.568 L86.228,33.67 C86.228,39.898 89.686,45.329 94.779,48.159 L94.779,136.819 L25.835,136.819 C11.984,136.819 0.716,148.087 0.716,161.938 L0.716,452.676 C0.716,463.724 7.888,473.122 17.818,476.476 L17.818,495.432 C17.818,504.568 25.25,512 34.386,512 L51.488,512 C60.624,512 68.056,504.568 68.056,495.432 L68.056,477.795 L205.943,477.795 L205.943,495.432 C205.943,504.568 213.375,512 222.511,512 L239.613,512 C248.749,512 256.181,504.568 256.181,495.432 L256.181,476.476 C266.111,473.122 273.283,463.724 273.283,452.676 L273.283,161.938 C273.284,148.088 262.016,136.819 248.165,136.819 Z M102.261,16.568 C102.261,16.273 102.5,16.034 102.795,16.034 L171.204,16.034 C171.499,16.034 171.738,16.273 171.738,16.568 L171.738,33.67 C171.738,33.965 171.499,34.204 171.204,34.204 L102.795,34.204 C102.5,34.204 102.261,33.965 102.261,33.67 L102.261,16.568 L102.261,16.568 Z M163.188,50.238 L163.188,136.819 L110.812,136.819 L110.812,50.238 L163.188,50.238 Z M52.023,495.432 C52.023,495.727 51.784,495.966 51.489,495.966 L34.387,495.966 C34.092,495.966 33.853,495.727 33.853,495.432 L33.853,477.795 L52.024,477.795 L52.024,495.432 L52.023,495.432 Z M240.148,495.432 C240.148,495.727 239.909,495.966 239.614,495.966 L222.512,495.966 C222.217,495.966 221.978,495.727 221.978,495.432 L221.978,477.795 L240.149,477.795 L240.149,495.432 L240.148,495.432 Z M257.251,452.676 C257.251,457.686 253.175,461.762 248.165,461.762 L25.835,461.762 C20.825,461.762 16.749,457.686 16.749,452.676 L16.749,161.938 C16.749,156.928 20.825,152.852 25.835,152.852 L248.165,152.852 C253.175,152.852 257.251,156.928 257.251,161.938 L257.251,452.676 Z" id="Shape"></path>
                <path d="M137,171.024 C132.573,171.024 128.983,174.613 128.983,179.041 L128.983,435.574 C128.983,440.001 132.572,443.591 137,443.591 C141.427,443.591 145.017,440.002 145.017,435.574 L145.017,179.041 C145.017,174.613 141.427,171.024 137,171.024 Z" id="Shape"></path>
                <path d="M179.756,222.33 C175.329,222.33 171.739,225.919 171.739,230.347 L171.739,435.575 C171.739,440.002 175.328,443.592 179.756,443.592 C184.184,443.592 187.773,440.003 187.773,435.575 L187.773,230.347 C187.772,225.919 184.183,222.33 179.756,222.33 Z" id="Shape"></path>
                <path d="M179.756,171.024 C175.329,171.024 171.739,174.613 171.739,179.041 L171.739,196.14 C171.739,200.567 175.328,204.157 179.756,204.157 C184.184,204.157 187.773,200.568 187.773,196.14 L187.773,179.041 C187.772,174.613 184.183,171.024 179.756,171.024 Z" id="Shape"></path>
                <path d="M222.511,171.024 C218.084,171.024 214.494,174.613 214.494,179.041 L214.494,435.574 C214.494,440.001 218.083,443.591 222.511,443.591 C226.939,443.591 230.528,440.002 230.528,435.574 L230.528,179.041 C230.528,174.613 226.939,171.024 222.511,171.024 Z" id="Shape"></path>
                <path d="M51.489,171.024 C47.062,171.024 43.472,174.613 43.472,179.041 L43.472,435.574 C43.472,440.001 47.061,443.591 51.489,443.591 C55.917,443.591 59.506,440.002 59.506,435.574 L59.506,179.041 C59.505,174.613 55.916,171.024 51.489,171.024 Z" id="Shape"></path>
                <path d="M94.244,410.458 C89.817,410.458 86.227,414.047 86.227,418.475 L86.227,435.574 C86.227,440.001 89.816,443.591 94.244,443.591 C98.672,443.591 102.261,440.002 102.261,435.574 L102.261,418.475 C102.261,414.048 98.672,410.458 94.244,410.458 Z" id="Shape"></path>
                <path d="M94.244,171.024 C89.817,171.024 86.227,174.613 86.227,179.041 L86.227,384.269 C86.227,388.696 89.816,392.286 94.244,392.286 C98.672,392.286 102.261,388.697 102.261,384.269 L102.261,179.041 C102.261,174.613 98.672,171.024 94.244,171.024 Z" id="Shape"></path>
            </g>
        </g>
    </g>
</svg>