<?xml version="1.0" encoding="UTF-8"?>
<svg width="18px" height="14px" viewBox="0 0 18 14" version="1.1" xmlns="http://www.w3.org/2000/svg" xmlns:xlink="http://www.w3.org/1999/xlink">
    <!-- Generator: Sketch 42 (36781) - http://www.bohemiancoding.com/sketch -->
    <title>twitter icon</title>
    <desc>Created with Sketch.</desc>
    <defs></defs>
    <g id="Page-1" stroke="none" stroke-width="1" fill="none" fill-rule="evenodd">
        <g id="2.0-Sold-Out---1366px" transform="translate(-47.000000, -399.000000)" fill="#75787B">
            <path d="M65,400.815333 C64.3471752,401.097667 63.7970059,401.107 63.2131527,400.827778 C63.9662271,400.390667 64.0007129,400.084222 64.2725896,399.257444 C63.568437,399.662667 62.7880948,399.957444 61.9580289,400.116889 C61.2939761,399.430111 60.3460168,399 59.2986099,399 C57.2855997,399 55.6543397,400.583556 55.6543397,402.534222 C55.6543397,402.811889 55.6864195,403.081778 55.7481732,403.34 C52.719034,403.193 50.0339512,401.785222 48.236678,399.646333 C47.9230975,400.169 47.7426484,400.776444 47.7426484,401.424333 C47.7426484,402.650889 48.3866512,403.732 49.3642844,404.365889 C48.7667974,404.347222 48.2054001,404.188556 47.7137765,403.924111 C47.7129745,403.938889 47.7129745,403.952889 47.7129745,403.968444 C47.7129745,405.681111 48.9697024,407.109111 50.6370522,407.434222 C50.1029228,407.575 49.5399216,407.596778 48.9905543,407.494889 C49.45491,408.898778 50.8006594,409.920778 52.3950276,409.949556 C50.8359472,411.134889 48.9023347,411.628778 47,411.412556 C48.6128141,412.415111 50.5279808,413 52.5859027,413 C59.2897879,413 62.954108,407.614667 62.954108,402.944111 C62.954108,402.790111 62.951702,402.639222 62.944484,402.486778 C63.6558546,401.989 64.5115844,401.524667 65,400.815333" id="twitter-icon"></path>
        </g>
    </g>
</svg>