<?xml version="1.0" encoding="UTF-8"?>
<svg width="18px" height="14px" viewBox="0 0 18 14" version="1.1" xmlns="http://www.w3.org/2000/svg" xmlns:xlink="http://www.w3.org/1999/xlink">
    <!-- Generator: Sketch 42 (36781) - http://www.bohemiancoding.com/sketch -->
    <title>twitter icon</title>
    <desc>Created with Sketch.</desc>
    <defs></defs>
    <g id="Page-1" stroke="none" stroke-width="1" fill="none" fill-rule="evenodd">
        <path d="M18,1.81533333 C17.3471752,2.09766667 16.7970059,2.107 16.2131527,1.82777778 C16.9662271,1.39066667 17.0007129,1.08422222 17.2725896,0.257444444 C16.568437,0.662666667 15.7880948,0.957444444 14.9580289,1.11688889 C14.2939761,0.430111111 13.3460168,0 12.2986099,0 C10.2855997,0 8.65433969,1.58355556 8.65433969,3.53422222 C8.65433969,3.81188889 8.68641953,4.08177778 8.74817323,4.34 C5.71903404,4.193 3.03395117,2.78522222 1.23667795,0.646333333 C0.923097487,1.169 0.742648369,1.77644444 0.742648369,2.42433333 C0.742648369,3.65088889 1.38665122,4.732 2.36428444,5.36588889 C1.76679736,5.34722222 1.20540011,5.18855556 0.71377651,4.92411111 C0.712974514,4.93888889 0.712974514,4.95288889 0.712974514,4.96844444 C0.712974514,6.68111111 1.96970237,8.10911111 3.63705222,8.43422222 C3.10292283,8.575 2.53992158,8.59677778 1.99055427,8.49488889 C2.45491,9.89877778 3.80065942,10.9207778 5.39502762,10.9495556 C3.83594725,12.1348889 1.9023347,12.6287778 0,12.4125556 C1.61281412,13.4151111 3.52798075,14 5.58590269,14 C12.2897879,14 15.954108,8.61466667 15.954108,3.94411111 C15.954108,3.79011111 15.951702,3.63922222 15.944484,3.48677778 C16.6558546,2.989 17.5115844,2.52466667 18,1.81533333" id="twitter-icon" fill="#A7A8AA"></path>
    </g>
</svg>