<?xml version="1.0" encoding="UTF-8"?>
<svg width="21px" height="15px" viewBox="0 0 21 15" version="1.1" xmlns="http://www.w3.org/2000/svg" xmlns:xlink="http://www.w3.org/1999/xlink">
    <!-- Generator: Sketch 42 (36781) - http://www.bohemiancoding.com/sketch -->
    <title>youtube icon</title>
    <desc>Created with Sketch.</desc>
    <defs></defs>
    <g id="Page-1" stroke="none" stroke-width="1" fill="none" fill-rule="evenodd">
        <g id="youtube-icon" fill="#A7A8AA">
            <path d="M13.9360213,7.18484211 L8.23201067,10.832 C8.162912,10.8757895 8.084544,10.8976842 8.00533333,10.8976842 C7.935392,10.8976842 7.86629333,10.8808421 7.80309333,10.8463158 C7.66826667,10.7722105 7.584,10.6307368 7.584,10.4766316 L7.584,3.18231579 C7.584,3.02821053 7.66826667,2.88673684 7.80309333,2.81347368 C7.93876267,2.73936842 8.10308267,2.74526316 8.23201067,2.82778947 L13.9360213,6.47494737 C14.0573653,6.55242105 14.1298347,6.68631579 14.1298347,6.83031579 C14.1298347,6.97347368 14.0573653,7.10736842 13.9360213,7.18484211 M16.9055787,-8.8817842e-16 L3.31757867,-8.8817842e-16 C1.488992,-8.8817842e-16 0,1.48884211 0,3.31789474 L0,10.9987368 C0,12.8277895 1.488992,14.3157895 3.31757867,14.3157895 L16.9055787,14.3157895 C18.735008,14.3157895 20.224,12.8277895 20.224,10.9987368 L20.224,3.31789474 C20.224,1.48884211 18.735008,-8.8817842e-16 16.9055787,-8.8817842e-16" id="Fill-121"></path>
        </g>
    </g>
</svg>