<?xml version="1.0" encoding="UTF-8"?>
<svg width="21px" height="16px" viewBox="0 0 21 16" version="1.1" xmlns="http://www.w3.org/2000/svg" xmlns:xlink="http://www.w3.org/1999/xlink">
    <!-- Generator: Sketch 42 (36781) - http://www.bohemiancoding.com/sketch -->
    <title>Group 2</title>
    <desc>Created with Sketch.</desc>
    <defs></defs>
    <g id="Page-1" stroke="none" stroke-width="1" fill="none" fill-rule="evenodd">
        <g id="2.0-Sold-Out---1366px" transform="translate(-45.000000, -482.000000)" fill="#75787B">
            <g id="Group-2" transform="translate(45.000000, 482.000000)">
                <path d="M14.63786,7.90639398 L8.93384932,11.5535519 C8.86475065,11.5973414 8.78638265,11.6192361 8.70717199,11.6192361 C8.63723065,11.6192361 8.56813199,11.602394 8.50493199,11.5678677 C8.37010532,11.4937624 8.28583865,11.3522887 8.28583865,11.1981835 L8.28583865,3.90386767 C8.28583865,3.74976241 8.37010532,3.60828872 8.50493199,3.53502556 C8.64060132,3.4609203 8.80492132,3.46681504 8.93384932,3.54934135 L14.63786,7.19649925 C14.759204,7.27397293 14.8316733,7.40786767 14.8316733,7.55186767 C14.8316733,7.69502556 14.759204,7.8289203 14.63786,7.90639398 M17.6074173,0.72155188 L4.01941732,0.72155188 C2.19083065,0.72155188 0.701838653,2.21039398 0.701838653,4.03944662 L0.701838653,11.7202887 C0.701838653,13.5493414 2.19083065,15.0373414 4.01941732,15.0373414 L17.6074173,15.0373414 C19.4368467,15.0373414 20.9258387,13.5493414 20.9258387,11.7202887 L20.9258387,4.03944662 C20.9258387,2.21039398 19.4368467,0.72155188 17.6074173,0.72155188" id="Fill-121"></path>
            </g>
        </g>
    </g>
</svg>